<svg width="20" height="20" viewBox="0 0 20 20" fill="none" xmlns="http://www.w3.org/2000/svg">
<path d="M10.0637 2.5H10.175C11.2025 2.50375 16.4088 2.54125 17.8125 2.91875C18.2369 3.03396 18.6236 3.25853 18.9339 3.57001C19.2443 3.88149 19.4675 4.26898 19.5812 4.69375C19.7075 5.16875 19.7962 5.7975 19.8563 6.44625L19.8688 6.57625L19.8962 6.90125L19.9062 7.03125C19.9875 8.17375 19.9975 9.24375 19.9987 9.4775V9.57125C19.9975 9.81375 19.9862 10.9563 19.8962 12.1463L19.8862 12.2775L19.875 12.4075C19.8125 13.1225 19.72 13.8325 19.5812 14.355C19.4679 14.7799 19.2448 15.1676 18.9344 15.4791C18.6239 15.7907 18.237 16.0151 17.8125 16.13C16.3625 16.52 10.8512 16.5475 10.0875 16.5488H9.91C9.52375 16.5488 7.92625 16.5413 6.25125 16.4838L6.03875 16.4763L5.93 16.4713L5.71625 16.4625L5.5025 16.4538C4.115 16.3925 2.79375 16.2938 2.185 16.1288C1.76061 16.014 1.37383 15.7897 1.06341 15.4784C0.752979 15.1671 0.529809 14.7797 0.41625 14.355C0.2775 13.8338 0.185 13.1225 0.1225 12.4075L0.1125 12.2763L0.1025 12.1463C0.0408095 11.2992 0.00662483 10.4505 0 9.60125L0 9.4475C0.0025 9.17875 0.0125 8.25 0.08 7.225L0.08875 7.09625L0.0925 7.03125L0.1025 6.90125L0.13 6.57625L0.1425 6.44625C0.2025 5.7975 0.29125 5.1675 0.4175 4.69375C0.530867 4.26881 0.753953 3.88114 1.06439 3.5696C1.37483 3.25807 1.76171 3.03362 2.18625 2.91875C2.795 2.75625 4.11625 2.65625 5.50375 2.59375L5.71625 2.585L5.93125 2.5775L6.03875 2.57375L6.2525 2.565C7.44213 2.52672 8.63226 2.50547 9.8225 2.50125H10.0637V2.5ZM8 6.5125V12.535L13.1962 9.525L8 6.5125Z" fill="white"/>
</svg>
