<svg width="8" height="8" viewBox="0 0 8 8" fill="none" xmlns="http://www.w3.org/2000/svg">
<path d="M4 6.64407C3.9209 6.64407 3.84463 6.62994 3.77119 6.6017C3.69774 6.57345 3.62712 6.51977 3.55932 6.44068L0.186441 3.0678C0.062147 2.9548 0 2.80791 0 2.62712C0 2.44633 0.062147 2.29379 0.186441 2.16949C0.310735 2.0565 0.454802 2 0.618644 2C0.782486 2 0.926554 2.0565 1.05085 2.16949L4 5.11864L6.9322 2.16949C7.0565 2.0565 7.20339 2 7.37288 2C7.54237 2 7.68927 2.0565 7.81356 2.16949C7.93785 2.29379 8 2.4435 8 2.61864C8 2.79379 7.93785 2.93785 7.81356 3.05085L4.42373 6.44068C4.36723 6.50848 4.30226 6.55932 4.22881 6.59322C4.15537 6.62712 4.0791 6.64407 4 6.64407Z" fill="#6D6E70"/>
</svg>
