<svg width="32" height="32" viewBox="0 0 32 32" fill="none" xmlns="http://www.w3.org/2000/svg">
<path d="M15.3388 29.5596C15.1373 29.5596 14.9484 29.5407 14.7721 29.503C14.5958 29.4652 14.4195 29.3959 14.2432 29.2952L5.55372 24.5348C5.2011 24.3333 4.91775 24.0563 4.70366 23.7037C4.48957 23.351 4.38253 22.9606 4.38253 22.5325V14.8253L0.566706 12.7473C0.365211 12.6466 0.220386 12.5081 0.132231 12.3318C0.0440771 12.1555 0 11.9665 0 11.7651C0 11.5636 0.0440771 11.3747 0.132231 11.1983C0.220386 11.022 0.365211 10.8835 0.566706 10.7828L14.2432 3.30224C14.4195 3.2015 14.5958 3.12593 14.7721 3.07556C14.9484 3.02519 15.1373 3 15.3388 3C15.5403 3 15.7292 3.02519 15.9056 3.07556C16.0819 3.12593 16.2582 3.2015 16.4345 3.30224L31.3955 11.425C31.597 11.551 31.7481 11.7021 31.8489 11.8784C31.9496 12.0547 32 12.2436 32 12.4451V22.608C32 22.9355 31.893 23.2062 31.6789 23.4203C31.4648 23.6344 31.194 23.7414 30.8666 23.7414C30.5392 23.7414 30.2684 23.6344 30.0543 23.4203C29.8402 23.2062 29.7332 22.9355 29.7332 22.608V13.0874L26.2952 14.8253V22.5325C26.2952 22.9606 26.1881 23.351 25.974 23.7037C25.7599 24.0563 25.4766 24.3333 25.124 24.5348L16.4345 29.2952C16.2582 29.3959 16.0819 29.4652 15.9056 29.503C15.7292 29.5407 15.5403 29.5596 15.3388 29.5596ZM15.3388 18.2633L27.2397 11.7651L15.3388 5.38017L3.51358 11.7651L15.3388 18.2633ZM15.3388 27.3306L24.0283 22.5325V16.1854L16.4345 20.2656C16.2582 20.3664 16.0819 20.4357 15.9056 20.4734C15.7292 20.5112 15.5403 20.5301 15.3388 20.5301C15.1373 20.5301 14.9547 20.5112 14.791 20.4734C14.6273 20.4357 14.4573 20.3664 14.281 20.2656L6.64935 16.1098V22.5325L15.3388 27.3306Z" fill="#66AC8D"/>
</svg>
