<svg width="16" height="16" viewBox="0 0 16 16" fill="none" xmlns="http://www.w3.org/2000/svg">
<path d="M14.9801 7.90438C14.7818 7.90438 14.6118 7.8371 14.4701 7.70252C14.3285 7.56795 14.2435 7.39442 14.2151 7.18194C14.0168 5.75122 13.4006 4.51881 12.3665 3.48473C11.3324 2.45064 10.1 1.83444 8.66932 1.63612C8.45684 1.60779 8.28331 1.51572 8.14874 1.35989C8.01417 1.20407 7.94688 1.027 7.94688 0.828685C7.94688 0.587871 8.02479 0.400177 8.18061 0.265604C8.33643 0.131031 8.52058 0.0708277 8.73307 0.0849933C10.5746 0.311642 12.1505 1.08012 13.4608 2.39044C14.7711 3.70075 15.5396 5.27667 15.7663 7.11819C15.7804 7.33068 15.7096 7.51483 15.5538 7.67065C15.398 7.82647 15.2067 7.90438 14.9801 7.90438ZM11.2829 7.90438C11.1129 7.90438 10.9571 7.84772 10.8154 7.7344C10.6738 7.62107 10.5746 7.46525 10.5179 7.26693C10.3763 6.81363 10.1355 6.41346 9.79549 6.0664C9.45551 5.71934 9.05179 5.47499 8.58433 5.33333C8.38601 5.27667 8.23019 5.18105 8.11687 5.04648C8.00354 4.91191 7.94688 4.75963 7.94688 4.58964C7.94688 4.33466 8.03542 4.12926 8.21248 3.97344C8.38955 3.81762 8.59141 3.76096 8.81806 3.80345C9.61133 4.00177 10.3019 4.39132 10.8898 4.97211C11.4776 5.5529 11.8707 6.23993 12.0691 7.0332C12.1257 7.25985 12.0726 7.46171 11.9097 7.63878C11.7468 7.81585 11.5378 7.90438 11.2829 7.90438ZM15.0226 16C13.1811 16 11.3643 15.5609 9.57238 14.6826C7.78044 13.8043 6.17618 12.6569 4.75963 11.2404C3.34307 9.82382 2.19566 8.21603 1.3174 6.417C0.439133 4.61797 0 2.7977 0 0.956175C0 0.672864 0.0885348 0.442674 0.265604 0.265604C0.442674 0.0885348 0.672864 0 0.956175 0H4.33466C4.51881 0 4.69234 0.0708278 4.85525 0.212483C5.01815 0.354139 5.12085 0.531209 5.16335 0.743692L5.77955 3.73971C5.80788 3.93803 5.8008 4.11864 5.7583 4.28154C5.7158 4.44444 5.65206 4.56839 5.56707 4.65339L3.33599 6.90571C4.10093 8.16645 4.97565 9.28552 5.96016 10.2629C6.94467 11.2404 8.01771 12.0549 9.17928 12.7065L11.3679 10.4967C11.4954 10.355 11.637 10.2559 11.7928 10.1992C11.9487 10.1425 12.1045 10.1355 12.2603 10.178L15.2138 10.8367C15.4263 10.8792 15.6069 10.9889 15.7556 11.166C15.9044 11.3431 15.9788 11.5378 15.9788 11.7503V15.0438C15.9788 15.3271 15.8902 15.5573 15.7131 15.7344C15.5361 15.9115 15.3059 16 15.0226 16ZM2.57105 5.48207L4.20717 3.8247L3.73971 1.55113H1.57238C1.57238 2.10359 1.65383 2.69146 1.81673 3.31474C1.97964 3.93803 2.23108 4.66047 2.57105 5.48207ZM14.4276 14.4276C14.4276 14.4418 14.4276 14.4453 14.4276 14.4382C14.4276 14.4312 14.4276 14.4276 14.4276 14.4276V12.239L12.239 11.7928L10.6242 13.4927C11.205 13.7618 11.8247 13.9743 12.4834 14.1301C13.1421 14.286 13.7902 14.3851 14.4276 14.4276Z" fill="white"/>
</svg>
