<svg width="8" height="8" viewBox="0 0 8 8" fill="none" xmlns="http://www.w3.org/2000/svg">
<g opacity="0.8">
<path fill-rule="evenodd" clip-rule="evenodd" d="M1.82322 0.74725C1.92085 0.658631 2.07915 0.658631 2.17678 0.74725L5.17678 3.47033C5.27441 3.55895 5.27441 3.70263 5.17678 3.79124L2.17678 6.51432C2.07915 6.60294 1.92085 6.60294 1.82322 6.51432C1.72559 6.4257 1.72559 6.28202 1.82322 6.1934L4.64645 3.63079L1.82322 1.06817C1.72559 0.979549 1.72559 0.835869 1.82322 0.74725Z" fill="white"/>
<path fill-rule="evenodd" clip-rule="evenodd" d="M3.82322 0.74725C3.92085 0.658631 4.07915 0.658631 4.17678 0.74725L7.17678 3.47033C7.27441 3.55895 7.27441 3.70263 7.17678 3.79124L4.17678 6.51432C4.07915 6.60294 3.92085 6.60294 3.82322 6.51432C3.72559 6.4257 3.72559 6.28202 3.82322 6.1934L6.64645 3.63079L3.82322 1.06817C3.72559 0.979549 3.72559 0.835869 3.82322 0.74725Z" fill="white"/>
</g>
</svg>
