<svg width="16" height="16" viewBox="0 0 16 16" fill="none" xmlns="http://www.w3.org/2000/svg">
<path d="M8.051 2H8.14C8.962 2.003 13.127 2.033 14.25 2.335C14.5895 2.42717 14.8989 2.60682 15.1472 2.85601C15.3955 3.10519 15.574 3.41518 15.665 3.755C15.766 4.135 15.837 4.638 15.885 5.157L15.895 5.261L15.917 5.521L15.925 5.625C15.99 6.539 15.998 7.395 15.999 7.582V7.657C15.998 7.851 15.989 8.765 15.917 9.717L15.909 9.822L15.9 9.926C15.85 10.498 15.776 11.066 15.665 11.484C15.5743 11.824 15.3958 12.1341 15.1475 12.3833C14.8991 12.6325 14.5896 12.8121 14.25 12.904C13.09 13.216 8.681 13.238 8.07 13.239H7.928C7.619 13.239 6.341 13.233 5.001 13.187L4.831 13.181L4.744 13.177L4.573 13.17L4.402 13.163C3.292 13.114 2.235 13.035 1.748 12.903C1.40849 12.8112 1.09907 12.6318 0.850724 12.3827C0.602384 12.1337 0.423847 11.8238 0.333 11.484C0.222 11.067 0.148 10.498 0.098 9.926L0.09 9.821L0.082 9.717C0.0326476 9.0394 0.00529987 8.36038 0 7.681L0 7.558C0.002 7.343 0.01 6.6 0.064 5.78L0.071 5.677L0.074 5.625L0.082 5.521L0.104 5.261L0.114 5.157C0.162 4.638 0.233 4.134 0.334 3.755C0.424694 3.41505 0.603162 3.10491 0.851513 2.85568C1.09986 2.60645 1.40937 2.42689 1.749 2.335C2.236 2.205 3.293 2.125 4.403 2.075L4.573 2.068L4.745 2.062L4.831 2.059L5.002 2.052C5.95371 2.02137 6.90581 2.00437 7.858 2.001H8.051V2ZM6.4 5.21V10.028L10.557 7.62L6.4 5.21Z" fill="white"/>
</svg>
