<svg width="32" height="32" viewBox="0 0 32 32" fill="none" xmlns="http://www.w3.org/2000/svg">
<path fill-rule="evenodd" clip-rule="evenodd" d="M4.4071 31.3725H14.4768V28.9654H4.4071V5.61657H8.65965V8.42485C8.65965 9.09349 8.89367 9.66184 9.36172 10.1299C9.82976 10.5979 10.3981 10.832 11.0667 10.832H21.0963C21.765 10.832 22.3333 10.5979 22.8014 10.1299C23.2694 9.66184 23.5034 9.09349 23.5034 8.42485V5.61657H27.756V13.7606H30.1631V5.61657C30.1631 4.97468 29.9224 4.41302 29.441 3.9316C28.9595 3.45018 28.3979 3.20947 27.756 3.20947H19.6521C19.4649 2.27337 19.0035 1.50444 18.268 0.902663C17.5325 0.300888 16.6833 0 15.7205 0C14.7576 0 13.9085 0.300888 13.173 0.902663C12.4375 1.50444 11.9761 2.27337 11.7889 3.20947H3.68497C3.39077 3.20947 3.03639 3.45018 2.62183 3.9316C2.20728 4.41302 2 4.97468 2 5.61657V28.9654C2 29.6073 2.24071 30.169 2.72213 30.6504C3.20355 31.1318 3.76521 31.3725 4.4071 31.3725ZM17.586 4.99474C17.2784 5.30231 16.8973 5.4561 16.4426 5.4561C15.9879 5.4561 15.6068 5.30231 15.2992 4.99474C14.9917 4.68716 14.8379 4.30604 14.8379 3.85136C14.8379 3.39669 14.9917 3.01556 15.2992 2.70799C15.6068 2.40041 15.9879 2.24663 16.4426 2.24663C16.8973 2.24663 17.2784 2.40041 17.586 2.70799C17.8936 3.01556 18.0473 3.39669 18.0473 3.85136C18.0473 4.30604 17.8936 4.68716 17.586 4.99474ZM27.5586 21.6471L29.6421 23.8745L30.493 22.9647C30.6496 22.7974 30.7278 22.5778 30.7278 22.3059C30.7278 22.034 30.6496 21.8144 30.493 21.6471L29.6421 20.7373C29.4856 20.5699 29.2802 20.4863 29.0258 20.4863C28.7715 20.4863 28.5661 20.5699 28.4096 20.7373L27.5586 21.6471ZM19.9584 29.7726V32H22.0419L28.3803 25.2235L26.2968 22.9961L19.9584 29.7726ZM9.39447 23.5294V25.4118H18.1978V23.5294H9.39447ZM9.39447 18.3529V20.2353H23.1863V18.3529H9.39447ZM9.39447 13.1765V15.0588H23.1863V13.1765H9.39447Z" fill="#66AC8D"/>
</svg>
