<svg width="32" height="32" viewBox="0 0 32 32" fill="none" xmlns="http://www.w3.org/2000/svg">
<path d="M7.51887 21.471C7.41488 21.471 7.32389 21.4297 7.2459 21.3471C7.1679 21.2645 7.12891 21.1682 7.12891 21.058V16.929C7.12891 16.8189 7.1679 16.7226 7.2459 16.64C7.32389 16.5574 7.41488 16.5161 7.51887 16.5161H11.4185C11.5225 16.5161 11.6135 16.5574 11.6915 16.64C11.7695 16.7226 11.8085 16.8189 11.8085 16.929V21.058C11.8085 21.1682 11.7695 21.2645 11.6915 21.3471C11.6135 21.4297 11.5225 21.471 11.4185 21.471H7.51887ZM7.51887 21.058H11.4185V16.929H7.51887V21.058Z" fill="#66AC8D"/>
<path d="M7.51887 27.2516C7.41488 27.2516 7.32389 27.2103 7.2459 27.1277C7.1679 27.0451 7.12891 26.9488 7.12891 26.8387V22.7097C7.12891 22.5995 7.1679 22.5032 7.2459 22.4206C7.32389 22.338 7.41488 22.2968 7.51887 22.2968H11.4185C11.5225 22.2968 11.6135 22.338 11.6915 22.4206C11.7695 22.5032 11.8085 22.5995 11.8085 22.7097V26.8387C11.8085 26.9488 11.7695 27.0451 11.6915 27.1277C11.6135 27.2103 11.5225 27.2516 11.4185 27.2516H7.51887ZM7.51887 26.8387H11.4185V22.7097H7.51887V26.8387Z" fill="#66AC8D"/>
<path d="M7.51887 15.6903C7.41488 15.6903 7.32389 15.649 7.2459 15.5664C7.1679 15.4839 7.12891 15.3875 7.12891 15.2774V11.1484C7.12891 11.0383 7.1679 10.9419 7.2459 10.8593C7.32389 10.7768 7.41488 10.7355 7.51887 10.7355H11.4185C11.5225 10.7355 11.6135 10.7768 11.6915 10.8593C11.7695 10.9419 11.8085 11.0383 11.8085 11.1484V15.2774C11.8085 15.3875 11.7695 15.4839 11.6915 15.5664C11.6135 15.649 11.5225 15.6903 11.4185 15.6903H7.51887ZM7.51887 15.2774H11.4185V11.1484H7.51887V15.2774ZM9.07223 14.2245C9.09823 14.2245 9.12206 14.2199 9.14372 14.2107C9.16539 14.2016 9.18705 14.1855 9.20872 14.1626L10.8141 12.4628C10.8487 12.4261 10.8671 12.3779 10.8693 12.3183C10.8715 12.2586 10.8531 12.2082 10.8141 12.1669C10.7751 12.1256 10.7285 12.1049 10.6743 12.1049C10.6202 12.1049 10.5736 12.1256 10.5346 12.1669L9.07223 13.7153L8.43529 13.0408C8.40062 13.0041 8.35621 12.9846 8.30205 12.9824C8.24789 12.9801 8.20131 12.9996 8.16231 13.0408C8.12331 13.0821 8.10382 13.1315 8.10382 13.1888C8.10382 13.2462 8.12331 13.2955 8.16231 13.3368L8.93574 14.1626C8.9574 14.1855 8.97907 14.2016 9.00073 14.2107C9.0224 14.2199 9.04623 14.2245 9.07223 14.2245ZM7.51887 15.2774V11.1484V15.2774Z" fill="#66AC8D"/>
<path d="M5.4 32C4.76 32 4.2 31.76 3.72 31.28C3.24 30.8 3 30.24 3 29.6V2.4C3 1.76 3.24 1.2 3.72 0.72C4.2 0.24 4.76 0 5.4 0H18.84C19.16 0 19.4667 0.0599999 19.76 0.18C20.0533 0.3 20.32 0.48 20.56 0.72L27.88 8.04C28.12 8.28 28.3 8.54667 28.42 8.84C28.54 9.13333 28.6 9.44 28.6 9.76V29.6C28.6 30.24 28.36 30.8 27.88 31.28C27.4 31.76 26.84 32 26.2 32H5.4ZM5.4 29.6H26.2V9.84H19.84C19.4933 9.84 19.2067 9.72667 18.98 9.5C18.7533 9.27333 18.64 8.98667 18.64 8.64V2.4H5.4V29.6ZM5.4 29.6V9.84V2.4V29.6Z" fill="#66AC8D"/>
</svg>
